<?xml version="1.0" encoding="utf-8"?>
<!-- Generator: Adobe Illustrator 21.1.0, SVG Export Plug-In . SVG Version: 6.00 Build 0)  -->
<svg version="1.1" id="Layer_1" xmlns="http://www.w3.org/2000/svg" xmlns:xlink="http://www.w3.org/1999/xlink" x="0px" y="0px"
	 viewBox="0 0 52 40" style="enable-background:new 0 0 52 40;" xml:space="preserve">
<style type="text/css">
	.st0{fill:#FFFFFF;}
</style>
<g>
	<path class="st0" d="M41.1,0H0v3.2h8.6v33.6H0V40h41.1c0.3,0,0.9,0,0.9,0c5.6-0.5,10-5.1,10-10.8c0-3.9-2.1-7.3-5.2-9.2
		c3.1-1.9,5.2-5.3,5.2-9.2C52,5.2,47.6,0.5,42,0v0C42,0,41.4,0,41.1,0L41.1,0z M11.8,17.2v-14h23.5L11.8,17.2L11.8,17.2z M16,18.4
		L41.5,3.2c4,0.2,7.2,3.5,7.2,7.6c0,4.2-3.4,7.6-7.7,7.6H16L16,18.4z M41.5,36.8L16,21.6h25.1c4.2,0,7.7,3.4,7.7,7.6
		C48.8,33.2,45.6,36.6,41.5,36.8L41.5,36.8z M11.8,36.8v-14l23.5,14H11.8L11.8,36.8z"/>
</g>
</svg> 